<svg width="88" height="89" viewBox="0 0 88 89" fill="none" xmlns="http://www.w3.org/2000/svg">
<path d="M88 0H0V89H88V0Z" fill="#D5C06F"/>
<path d="M13.685 39.1258L23.7847 28.9114C22.6947 28.0377 21.4077 27.4507 20.0386 27.2028C18.7361 27.0751 17.4951 26.5807 16.4564 25.7758C15.4177 24.9709 14.6228 23.8877 14.1619 22.649C13.7011 21.4103 13.5927 20.0658 13.8491 18.768C14.1055 17.4703 14.7164 16.2711 15.6126 15.3067C16.5087 14.3423 17.6542 13.6511 18.919 13.3118C20.1838 12.9724 21.5174 12.9983 22.7683 13.3866C24.0193 13.7749 25.1377 14.51 25.9965 15.5086C26.8553 16.5071 27.4202 17.7291 27.6271 19.0359C27.8056 20.5849 28.4136 22.0512 29.3808 23.2656L40.6281 11.8766L52.8 0H0V25.2807L13.685 39.1258Z" fill="#003B52"/>
<path d="M43.5754 13.0327L46.2564 15.7395C46.3711 15.837 46.4813 15.9391 46.5915 16.0505C49.2725 18.7899 48.8364 23.6789 45.5999 26.9289C44.2528 28.3204 42.5099 29.252 40.6143 29.5939C39.4359 29.999 38.4362 30.8111 37.791 31.8875C37.2828 32.7273 37.0169 33.694 37.0234 34.6786C37.0299 35.6631 37.3085 36.6262 37.8278 37.459C38.2492 38.1429 38.8177 38.7218 39.491 39.1527C40.1643 39.5836 40.925 39.8554 41.7165 39.9477C42.5081 40.0401 43.31 39.9507 44.0626 39.6862C44.8153 39.4217 45.4992 38.989 46.0635 38.4201C46.5551 37.9177 46.9449 37.3231 47.2112 36.6697C47.7488 35.1793 48.6047 33.8271 49.7178 32.7093C53.3904 28.995 58.8993 28.5307 62.0531 31.7111L62.0944 31.7529L65.3539 35.0493L69.3203 39.0748L87.9908 57.9575V0H57.2L43.5754 13.0327Z" fill="#003B52"/>
<path d="M46.1967 76.1437L43.3229 73.2419L43.2815 73.2001L43.2448 73.1583L42.9648 72.8798C40.7015 70.1497 41.4682 65.4093 44.8011 62.0432C46.2188 60.5732 48.0215 59.5424 49.9978 59.0717C50.1771 59.035 50.3502 58.9725 50.512 58.886C51.4156 58.2236 52.094 57.2941 52.4539 56.2256C52.8274 55.0818 52.8085 53.844 52.4003 52.7124C51.9922 51.5807 51.2186 50.6214 50.2046 49.9895C49.1906 49.3575 47.9955 49.0899 46.8126 49.2299C45.6296 49.3699 44.5279 49.9093 43.6855 50.7609C43.5272 50.9187 43.3899 51.0966 43.277 51.2902C42.6334 52.73 41.7358 54.039 40.6281 55.1531C36.4276 59.4014 30.253 60.0514 26.8559 56.5971C26.8154 56.5499 26.7725 56.505 26.7273 56.4624L16.5496 46.1505L0.0229492 29.436V89H33.4757L46.1967 76.1437Z" fill="#003B52"/>
<path d="M73.7779 47.7059C74.0671 50.3338 73.406 52.8131 71.7029 54.5217L71.6616 54.5589L71.4917 54.7399L66.0333 60.2C67.0266 60.9056 68.1614 61.3811 69.357 61.5929C70.6595 61.7209 71.9003 62.2158 72.9386 63.0213C73.9769 63.8269 74.771 64.9108 75.2307 66.1499C75.6904 67.3891 75.7973 68.7337 75.5391 70.0312C75.281 71.3287 74.6682 72.527 73.7705 73.4899C72.8727 74.4528 71.7259 75.1417 70.4604 75.4785C69.1948 75.8152 67.8613 75.7862 66.6112 75.3948C65.3611 75.0034 64.2446 74.2652 63.3886 73.2642C62.5326 72.2632 61.9713 71.0394 61.7685 69.7319C61.617 68.3651 61.1241 67.0597 60.3362 65.9387L52.4998 73.8641L37.5615 89H88V62.0943L73.7779 47.7059Z" fill="#003B52"/>
</svg>
